<mxfile host="65bd71144e">
    <diagram id="VytMkDrEXOZC2izVtUxU" name="Page-1">
        <mxGraphModel dx="1135" dy="427" grid="1" gridSize="10" guides="1" tooltips="1" connect="1" arrows="1" fold="1" page="1" pageScale="1" pageWidth="850" pageHeight="1100" math="0" shadow="0">
            <root>
                <mxCell id="0"/>
                <mxCell id="1" parent="0"/>
                <mxCell id="17" value="" style="rounded=0;html=1;jettySize=auto;orthogonalLoop=1;fontSize=11;endArrow=classic;endFill=1;endSize=8;strokeWidth=1;shadow=0;labelBackgroundColor=none;edgeStyle=orthogonalEdgeStyle;" edge="1" parent="1" source="29" target="19">
                    <mxGeometry relative="1" as="geometry"/>
                </mxCell>
                <mxCell id="18" value="No" style="rounded=0;html=1;jettySize=auto;orthogonalLoop=1;fontSize=11;endArrow=classic;endFill=1;endSize=8;strokeWidth=1;shadow=0;labelBackgroundColor=none;edgeStyle=orthogonalEdgeStyle;" edge="1" parent="1" source="19" target="25">
                    <mxGeometry x="-0.7333" y="16" relative="1" as="geometry">
                        <mxPoint as="offset"/>
                        <mxPoint x="454.3699999999999" y="570.0044222883333" as="targetPoint"/>
                    </mxGeometry>
                </mxCell>
                <mxCell id="19" value="&lt;br&gt;&lt;i&gt;Текущая ячейка&lt;/i&gt;&amp;nbsp;&lt;br&gt;проверялась &lt;br&gt;на предыдущих&lt;br&gt;итерациях" style="rhombus;whiteSpace=wrap;html=1;shadow=0;fontFamily=Helvetica;fontSize=12;align=center;strokeWidth=1;spacing=6;spacingTop=-4;" vertex="1" parent="1">
                    <mxGeometry x="367.18" y="420" width="174.38" height="110" as="geometry"/>
                </mxCell>
                <mxCell id="23" value="" style="edgeStyle=orthogonalEdgeStyle;rounded=0;orthogonalLoop=1;jettySize=auto;html=1;labelBackgroundColor=none;endFill=1;endSize=8;strokeWidth=1;shadow=0;" edge="1" parent="1" source="24" target="29">
                    <mxGeometry relative="1" as="geometry">
                        <mxPoint x="610" y="770" as="targetPoint"/>
                        <Array as="points">
                            <mxPoint x="630" y="790"/>
                            <mxPoint x="630" y="340"/>
                        </Array>
                    </mxGeometry>
                </mxCell>
                <mxCell id="24" value="Добавляем &lt;i&gt;текущую ячейку&lt;/i&gt;&amp;nbsp;в вектор проверенных зависимостей" style="rounded=1;whiteSpace=wrap;html=1;fontSize=12;glass=0;strokeWidth=1;shadow=0;" vertex="1" parent="1">
                    <mxGeometry x="386.56" y="760" width="135.62" height="60" as="geometry"/>
                </mxCell>
                <mxCell id="25" value="Очищаем кэш текущей ячейки" style="rounded=1;whiteSpace=wrap;html=1;fontSize=12;glass=0;strokeWidth=1;shadow=0;" vertex="1" parent="1">
                    <mxGeometry x="394.37" y="630" width="120" height="40" as="geometry"/>
                </mxCell>
                <mxCell id="26" value="&lt;b&gt;&lt;font style=&quot;font-size: 14px;&quot;&gt;Инвалидация кэша&lt;/font&gt;&lt;/b&gt;" style="text;html=1;strokeColor=none;fillColor=none;align=center;verticalAlign=middle;whiteSpace=wrap;rounded=0;" vertex="1" parent="1">
                    <mxGeometry x="90" y="210" width="620" height="30" as="geometry"/>
                </mxCell>
                <mxCell id="27" value="" style="edgeStyle=orthogonalEdgeStyle;rounded=0;orthogonalLoop=1;jettySize=auto;html=1;" edge="1" parent="1" source="19" target="29">
                    <mxGeometry relative="1" as="geometry">
                        <mxPoint x="654.3699999999999" y="359.9999999999999" as="sourcePoint"/>
                        <Array as="points">
                            <mxPoint x="630" y="475"/>
                            <mxPoint x="630" y="340"/>
                        </Array>
                    </mxGeometry>
                </mxCell>
                <mxCell id="28" value="Yes" style="edgeLabel;html=1;align=center;verticalAlign=middle;resizable=0;points=[];" vertex="1" connectable="0" parent="27">
                    <mxGeometry x="-0.7916" relative="1" as="geometry">
                        <mxPoint x="18" y="-15" as="offset"/>
                    </mxGeometry>
                </mxCell>
                <mxCell id="29" value="&lt;font style=&quot;font-size: 12px;&quot;&gt;&lt;i&gt;Выполняем рекурсивный обход графа зависимостей&amp;nbsp;&lt;br&gt;для текущей цели (обратный обход по ссылкам зависимых ячеек)&lt;br&gt;&lt;/i&gt;&lt;/font&gt;" style="rounded=1;whiteSpace=wrap;html=1;" vertex="1" parent="1">
                    <mxGeometry x="354.38" y="300" width="200" height="80" as="geometry"/>
                </mxCell>
                <mxCell id="30" value="" style="rounded=0;html=1;jettySize=auto;orthogonalLoop=1;fontSize=11;endArrow=classic;endFill=1;endSize=8;strokeWidth=1;shadow=0;labelBackgroundColor=none;edgeStyle=orthogonalEdgeStyle;" edge="1" parent="1" source="25" target="24">
                    <mxGeometry relative="1" as="geometry">
                        <mxPoint x="587.1800000000001" y="615" as="sourcePoint"/>
                        <mxPoint x="541.5600000000002" y="635.0063080628513" as="targetPoint"/>
                    </mxGeometry>
                </mxCell>
            </root>
        </mxGraphModel>
    </diagram>
</mxfile>